<svg width="21" height="20" viewBox="0 0 21 20" fill="none" xmlns="http://www.w3.org/2000/svg">
<path d="M16.7236 4.16669H15.8902V2.50002C15.8902 2.27901 15.8024 2.06705 15.6461 1.91076C15.4899 1.75448 15.2779 1.66669 15.0569 1.66669C14.8359 1.66669 14.6239 1.75448 14.4676 1.91076C14.3113 2.06705 14.2236 2.27901 14.2236 2.50002V4.16669H7.55688V2.50002C7.55688 2.27901 7.46909 2.06705 7.31281 1.91076C7.15653 1.75448 6.94457 1.66669 6.72355 1.66669C6.50254 1.66669 6.29058 1.75448 6.1343 1.91076C5.97802 2.06705 5.89022 2.27901 5.89022 2.50002V4.16669H5.05688C4.39384 4.16669 3.75796 4.43008 3.28912 4.89892C2.82028 5.36776 2.55688 6.00365 2.55688 6.66669V7.50002H19.2236V6.66669C19.2236 6.00365 18.9602 5.36776 18.4913 4.89892C18.0225 4.43008 17.3866 4.16669 16.7236 4.16669Z" fill="#212224"/>
<path d="M2.55688 15.8334C2.55688 16.4964 2.82028 17.1323 3.28912 17.6011C3.75796 18.07 4.39384 18.3334 5.05688 18.3334H16.7236C17.3866 18.3334 18.0225 18.07 18.4913 17.6011C18.9602 17.1323 19.2236 16.4964 19.2236 15.8334V9.16669H2.55688V15.8334Z" fill="#212224"/>
</svg>
