<svg width="88" height="24" viewBox="0 0 88 24" fill="none" xmlns="http://www.w3.org/2000/svg">
<g clip-path="url(#clip0_58_257)">
<path d="M42.9307 17.6006V20H35.4146V17.6006H42.9307ZM36.4092 5.07031V20H33.333V5.07031H36.4092ZM44.0381 14.5654V14.3501C44.0381 13.5366 44.1543 12.7881 44.3867 12.1045C44.6191 11.4141 44.9575 10.8159 45.4019 10.3101C45.8462 9.8042 46.3931 9.41113 47.0425 9.13086C47.6919 8.84375 48.437 8.7002 49.2778 8.7002C50.1187 8.7002 50.8672 8.84375 51.5234 9.13086C52.1797 9.41113 52.73 9.8042 53.1743 10.3101C53.6255 10.8159 53.9673 11.4141 54.1997 12.1045C54.4321 12.7881 54.5483 13.5366 54.5483 14.3501V14.5654C54.5483 15.3721 54.4321 16.1206 54.1997 16.811C53.9673 17.4946 53.6255 18.0928 53.1743 18.6055C52.73 19.1113 52.1831 19.5044 51.5337 19.7847C50.8843 20.0649 50.1392 20.2051 49.2983 20.2051C48.4575 20.2051 47.709 20.0649 47.0527 19.7847C46.4033 19.5044 45.853 19.1113 45.4019 18.6055C44.9575 18.0928 44.6191 17.4946 44.3867 16.811C44.1543 16.1206 44.0381 15.3721 44.0381 14.5654ZM46.9912 14.3501V14.5654C46.9912 15.0303 47.0322 15.4644 47.1143 15.8677C47.1963 16.271 47.3262 16.6265 47.5039 16.9341C47.6885 17.2349 47.9277 17.4707 48.2217 17.6416C48.5156 17.8125 48.8745 17.8979 49.2983 17.8979C49.7085 17.8979 50.0605 17.8125 50.3545 17.6416C50.6484 17.4707 50.8843 17.2349 51.062 16.9341C51.2397 16.6265 51.3696 16.271 51.4517 15.8677C51.5405 15.4644 51.585 15.0303 51.585 14.5654V14.3501C51.585 13.8989 51.5405 13.4751 51.4517 13.0786C51.3696 12.6753 51.2363 12.3198 51.0518 12.0122C50.874 11.6978 50.6382 11.4517 50.3442 11.2739C50.0503 11.0962 49.6948 11.0073 49.2778 11.0073C48.8608 11.0073 48.5054 11.0962 48.2114 11.2739C47.9243 11.4517 47.6885 11.6978 47.5039 12.0122C47.3262 12.3198 47.1963 12.6753 47.1143 13.0786C47.0322 13.4751 46.9912 13.8989 46.9912 14.3501ZM63.3872 8.90527H66.0635V19.6309C66.0635 20.6426 65.8379 21.5005 65.3867 22.2046C64.9424 22.9155 64.3203 23.4521 63.5205 23.8145C62.7207 24.1836 61.791 24.3682 60.7314 24.3682C60.2666 24.3682 59.7744 24.3066 59.2549 24.1836C58.7422 24.0605 58.25 23.8691 57.7783 23.6094C57.3135 23.3496 56.9238 23.0215 56.6094 22.625L57.9116 20.8818C58.2534 21.2783 58.6499 21.5859 59.1011 21.8047C59.5522 22.0303 60.0513 22.1431 60.5981 22.1431C61.1313 22.1431 61.5825 22.0439 61.9517 21.8457C62.3208 21.6543 62.6045 21.3706 62.8027 20.9946C63.001 20.6255 63.1001 20.1777 63.1001 19.6514V11.4688L63.3872 8.90527ZM55.9224 14.5859V14.3706C55.9224 13.5229 56.0249 12.7539 56.23 12.0635C56.4419 11.3662 56.7393 10.7681 57.1221 10.269C57.5117 9.77002 57.9834 9.38379 58.5371 9.11035C59.0908 8.83691 59.7163 8.7002 60.4136 8.7002C61.1519 8.7002 61.7705 8.83691 62.2695 9.11035C62.7686 9.38379 63.1787 9.77344 63.5 10.2793C63.8213 10.7783 64.0708 11.3696 64.2485 12.0532C64.4331 12.73 64.5767 13.4717 64.6792 14.2783V14.75C64.5767 15.5225 64.4229 16.2402 64.2178 16.9033C64.0127 17.5664 63.7427 18.1475 63.4077 18.6465C63.0728 19.1387 62.6558 19.5215 62.1567 19.7949C61.6646 20.0684 61.0767 20.2051 60.3931 20.2051C59.7095 20.2051 59.0908 20.0649 58.5371 19.7847C57.9902 19.5044 57.522 19.1113 57.1323 18.6055C56.7427 18.0996 56.4419 17.5049 56.23 16.8213C56.0249 16.1377 55.9224 15.3926 55.9224 14.5859ZM58.8755 14.3706V14.5859C58.8755 15.0439 58.9199 15.4712 59.0088 15.8677C59.0977 16.2642 59.2344 16.6162 59.4189 16.9238C59.6104 17.2246 59.8462 17.4604 60.1265 17.6313C60.4136 17.7954 60.752 17.8774 61.1416 17.8774C61.6816 17.8774 62.1226 17.7646 62.4644 17.5391C62.8062 17.3066 63.0625 16.9888 63.2334 16.5854C63.4043 16.1821 63.5034 15.7173 63.5308 15.1909V13.8477C63.5171 13.417 63.459 13.0308 63.3564 12.689C63.2539 12.3403 63.1104 12.043 62.9258 11.7969C62.7412 11.5508 62.502 11.3594 62.208 11.2227C61.9141 11.0859 61.5654 11.0176 61.1621 11.0176C60.7725 11.0176 60.4341 11.1064 60.147 11.2842C59.8667 11.4551 59.6309 11.6909 59.4395 11.9917C59.2549 12.2925 59.1147 12.6479 59.019 13.0581C58.9233 13.4614 58.8755 13.8989 58.8755 14.3706ZM67.8887 14.5654V14.3501C67.8887 13.5366 68.0049 12.7881 68.2373 12.1045C68.4697 11.4141 68.8081 10.8159 69.2524 10.3101C69.6968 9.8042 70.2437 9.41113 70.8931 9.13086C71.5425 8.84375 72.2876 8.7002 73.1284 8.7002C73.9692 8.7002 74.7178 8.84375 75.374 9.13086C76.0303 9.41113 76.5806 9.8042 77.0249 10.3101C77.4761 10.8159 77.8179 11.4141 78.0503 12.1045C78.2827 12.7881 78.3989 13.5366 78.3989 14.3501V14.5654C78.3989 15.3721 78.2827 16.1206 78.0503 16.811C77.8179 17.4946 77.4761 18.0928 77.0249 18.6055C76.5806 19.1113 76.0337 19.5044 75.3843 19.7847C74.7349 20.0649 73.9897 20.2051 73.1489 20.2051C72.3081 20.2051 71.5596 20.0649 70.9033 19.7847C70.2539 19.5044 69.7036 19.1113 69.2524 18.6055C68.8081 18.0928 68.4697 17.4946 68.2373 16.811C68.0049 16.1206 67.8887 15.3721 67.8887 14.5654ZM70.8418 14.3501V14.5654C70.8418 15.0303 70.8828 15.4644 70.9648 15.8677C71.0469 16.271 71.1768 16.6265 71.3545 16.9341C71.5391 17.2349 71.7783 17.4707 72.0723 17.6416C72.3662 17.8125 72.7251 17.8979 73.1489 17.8979C73.5591 17.8979 73.9111 17.8125 74.2051 17.6416C74.499 17.4707 74.7349 17.2349 74.9126 16.9341C75.0903 16.6265 75.2202 16.271 75.3022 15.8677C75.3911 15.4644 75.4355 15.0303 75.4355 14.5654V14.3501C75.4355 13.8989 75.3911 13.4751 75.3022 13.0786C75.2202 12.6753 75.0869 12.3198 74.9023 12.0122C74.7246 11.6978 74.4888 11.4517 74.1948 11.2739C73.9009 11.0962 73.5454 11.0073 73.1284 11.0073C72.7114 11.0073 72.356 11.0962 72.062 11.2739C71.7749 11.4517 71.5391 11.6978 71.3545 12.0122C71.1768 12.3198 71.0469 12.6753 70.9648 13.0786C70.8828 13.4751 70.8418 13.8989 70.8418 14.3501Z" fill="#2E2C34"/>
<path d="M4.67118 3.83228C4.67054 3.83228 4.66981 3.83228 4.66916 3.83228C4.44217 3.83228 4.22868 3.92076 4.06747 4.08157C3.90448 4.24416 3.8147 4.46064 3.8147 4.69111V17.5691C3.8147 18.0414 4.2004 18.4265 4.67458 18.4277C6.67362 18.4325 10.0228 18.8491 12.3333 21.267V7.78978C12.3333 7.6297 12.2924 7.47932 12.2152 7.35487C10.3189 4.30096 6.67475 3.83696 4.67118 3.83228Z" fill="black"/>
<path d="M22.1852 17.5691V4.69101C22.1852 4.46055 22.0955 4.24406 21.9325 4.08148C21.7713 3.92067 21.5576 3.83218 21.3309 3.83218C21.3301 3.83218 21.3294 3.83218 21.3288 3.83218C19.3253 3.83695 15.6811 4.30095 13.7847 7.35486C13.7076 7.47931 13.6667 7.62969 13.6667 7.78977V21.2669C15.9772 18.849 19.3264 18.4324 21.3254 18.4276C21.7995 18.4264 22.1852 18.0413 22.1852 17.5691Z" fill="black"/>
<path d="M24.1413 6.80212H23.5186V17.5691C23.5186 18.7749 22.5362 19.758 21.3286 19.761C19.633 19.7651 16.8372 20.0966 14.8572 21.9707C18.2817 21.1322 21.8917 21.6772 23.9491 22.1461C24.206 22.2046 24.4714 22.1442 24.6773 21.9801C24.8823 21.8165 25 21.5719 25 21.3093V7.66079C25.0001 7.18734 24.6148 6.80212 24.1413 6.80212Z" fill="black"/>
<path d="M2.48138 17.5691V6.80212H1.85867C1.38529 6.80212 1 7.18734 1 7.66079V21.3091C1 21.5717 1.11766 21.8162 1.32275 21.9799C1.52841 22.1438 1.79362 22.2045 2.05091 22.1459C4.10829 21.6769 7.71841 21.132 11.1427 21.9704C9.16278 20.0965 6.36697 19.765 4.67137 19.761C3.46385 19.758 2.48138 18.7749 2.48138 17.5691Z" fill="black"/>
</g>
<defs>
<clipPath id="clip0_58_257">
<rect width="88" height="24" fill="white"/>
</clipPath>
</defs>
</svg>
