<svg width="138" height="52" viewBox="0 0 138 52" fill="none" xmlns="http://www.w3.org/2000/svg">
<path d="M8.32 33.895H27.46V40H0.73V3.7H8.32V33.895ZM45.0488 11.95C47.8355 11.95 50.2738 12.5183 52.3638 13.655C54.4905 14.7917 56.1405 16.4233 57.3138 18.55C58.5238 20.6767 59.1288 23.2433 59.1288 26.25C59.1288 29.22 58.5238 31.7867 57.3138 33.95C56.1405 36.0767 54.4905 37.7083 52.3638 38.845C50.2738 39.9817 47.8355 40.55 45.0488 40.55C42.2988 40.55 39.8605 39.9817 37.7338 38.845C35.6072 37.7083 33.9388 36.0767 32.7288 33.95C31.5555 31.7867 30.9688 29.22 30.9688 26.25C30.9688 23.2433 31.5555 20.6767 32.7288 18.55C33.9388 16.4233 35.6072 14.7917 37.7338 13.655C39.8605 12.5183 42.2988 11.95 45.0488 11.95ZM45.0488 17.56C43.6555 17.56 42.4638 17.89 41.4738 18.55C40.5205 19.1733 39.7872 20.1267 39.2738 21.41C38.7605 22.6933 38.5038 24.3067 38.5038 26.25C38.5038 28.1933 38.7605 29.8067 39.2738 31.09C39.7872 32.3733 40.5205 33.345 41.4738 34.005C42.4638 34.6283 43.6555 34.94 45.0488 34.94C46.4055 34.94 47.5605 34.6283 48.5138 34.005C49.5038 33.345 50.2555 32.3733 50.7688 31.09C51.2822 29.8067 51.5388 28.1933 51.5388 26.25C51.5388 24.3067 51.2822 22.6933 50.7688 21.41C50.2555 20.1267 49.5038 19.1733 48.5138 18.55C47.5605 17.89 46.4055 17.56 45.0488 17.56ZM90.5738 5.955L91.4538 11.345C91.3071 11.345 91.1421 11.345 90.9588 11.345C90.8121 11.3083 90.6471 11.29 90.4638 11.29C88.7771 11.29 87.5121 11.675 86.6688 12.445C85.8255 13.1783 85.4038 14.205 85.4038 15.525L82.3238 14.26C82.3238 12.7933 82.6171 11.4367 83.2038 10.19C83.7905 8.90666 84.6521 7.88 85.7888 7.11C86.9621 6.34 88.3555 5.955 89.9688 5.955C90.0421 5.955 90.1338 5.955 90.2438 5.955C90.3538 5.955 90.4638 5.955 90.5738 5.955ZM81.5538 34.83C84.5238 34.83 86.8155 35.4717 88.4288 36.755C90.0421 38.0383 90.8488 39.835 90.8488 42.145C90.8488 44.235 90.2438 45.995 89.0338 47.425C87.8238 48.8917 86.1188 49.9917 83.9188 50.725C81.7555 51.4583 79.2438 51.825 76.3838 51.825C71.6538 51.825 68.1888 51.165 65.9888 49.845C63.8255 48.525 62.7438 46.8017 62.7438 44.675C62.7438 43.1717 63.3121 41.9067 64.4488 40.88C65.6221 39.8533 67.5471 39.285 70.2238 39.175L69.9488 40.055C68.0421 39.725 66.5755 39.1017 65.5488 38.185C64.5588 37.2317 64.0638 35.93 64.0638 34.28C64.0638 32.5933 64.7055 31.2183 65.9888 30.155C67.3088 29.055 69.0871 28.4133 71.3238 28.23L74.6238 29.77H73.8538C72.2771 29.88 71.1588 30.21 70.4988 30.76C69.8755 31.2733 69.5638 31.86 69.5638 32.52C69.5638 33.29 69.8571 33.8767 70.4438 34.28C71.0671 34.6467 71.9471 34.83 73.0838 34.83H81.5538ZM76.4388 46.655C78.3455 46.655 79.9038 46.49 81.1138 46.16C82.3605 45.83 83.2771 45.4083 83.8638 44.895C84.4871 44.3817 84.7988 43.8133 84.7988 43.19C84.7988 42.4933 84.5238 41.925 83.9738 41.485C83.4238 41.0817 82.4338 40.88 81.0038 40.88H71.7088C70.8288 40.88 70.0955 41.1 69.5088 41.54C68.9588 41.98 68.6838 42.585 68.6838 43.355C68.6838 44.3817 69.3621 45.1883 70.7188 45.775C72.1121 46.3617 74.0188 46.655 76.4388 46.655ZM76.4938 11.95C79.0605 11.95 81.2788 12.335 83.1488 13.105C85.0555 13.8383 86.5038 14.9017 87.4938 16.295C88.5205 17.6883 89.0338 19.3567 89.0338 21.3C89.0338 23.2067 88.5205 24.8567 87.4938 26.25C86.5038 27.6433 85.0555 28.725 83.1488 29.495C81.2788 30.2283 79.0605 30.595 76.4938 30.595C72.4238 30.595 69.3071 29.77 67.1438 28.12C65.0171 26.4333 63.9538 24.16 63.9538 21.3C63.9538 19.3567 64.4488 17.6883 65.4388 16.295C66.4655 14.9017 67.9138 13.8383 69.7838 13.105C71.6538 12.335 73.8905 11.95 76.4938 11.95ZM76.4938 16.68C75.0271 16.68 73.8171 17.0833 72.8638 17.89C71.9105 18.6967 71.4338 19.815 71.4338 21.245C71.4338 22.675 71.9105 23.8117 72.8638 24.655C73.8171 25.4617 75.0271 25.865 76.4938 25.865C77.9605 25.865 79.1521 25.4617 80.0688 24.655C81.0221 23.8117 81.4988 22.675 81.4988 21.245C81.4988 19.815 81.0221 18.6967 80.0688 17.89C79.1521 17.0833 77.9605 16.68 76.4938 16.68ZM99.1993 8.54C97.6227 8.54 96.4493 8.21 95.6793 7.55C94.9093 6.85333 94.5243 5.845 94.5243 4.525C94.5243 3.16833 94.9093 2.16 95.6793 1.5C96.4493 0.803331 97.6227 0.454998 99.1993 0.454998C100.776 0.454998 101.949 0.803331 102.719 1.5C103.489 2.16 103.874 3.16833 103.874 4.525C103.874 5.845 103.489 6.85333 102.719 7.55C101.949 8.21 100.776 8.54 99.1993 8.54ZM102.939 12.5V40H95.4043V12.5H102.939ZM110.927 40V12.5H117.692L118.132 20.75L117.197 19.87C117.637 18.0733 118.333 16.5883 119.287 15.415C120.24 14.2417 121.395 13.38 122.752 12.83C124.145 12.2433 125.667 11.95 127.317 11.95C129.223 11.95 130.91 12.3167 132.377 13.05C133.88 13.7833 135.053 14.9017 135.897 16.405C136.777 17.8717 137.217 19.7233 137.217 21.96V40H129.682V24.105C129.682 21.7583 129.223 20.145 128.307 19.265C127.39 18.3483 126.198 17.89 124.732 17.89C123.705 17.89 122.697 18.1467 121.707 18.66C120.753 19.1367 119.965 19.925 119.342 21.025C118.755 22.125 118.462 23.5917 118.462 25.425V40H110.927Z" fill="#212224"/>
</svg>
